<svg xmlns="http://www.w3.org/2000/svg" xmlns:xlink="http://www.w3.org/1999/xlink" width="500" zoomAndPan="magnify" viewBox="0 0 375 374.999991" height="500" preserveAspectRatio="xMidYMid meet" version="1.2"><defs><clipPath id="35191ecb09"><path d="M 45 164 L 73 164 L 73 202.515625 L 45 202.515625 Z M 45 164 "/></clipPath><filter x="0%" y="0%" width="100%" filterUnits="objectBoundingBox" id="4ef04b2404" height="100%"><feColorMatrix values="0 0 0 0 1 0 0 0 0 1 0 0 0 0 1 0 0 0 1 0" type="matrix" in="SourceGraphic"/></filter><clipPath id="05986f0ca3"><path d="M 0.359375 0.640625 L 27.71875 0.640625 L 27.71875 38.515625 L 0.359375 38.515625 Z M 0.359375 0.640625 "/></clipPath><clipPath id="c2fd896218"><rect x="0" width="28" y="0" height="39"/></clipPath><clipPath id="448bbb8c59"><path d="M 66 164 L 94 164 L 94 202.515625 L 66 202.515625 Z M 66 164 "/></clipPath><clipPath id="a54b011d25"><path d="M 0.238281 0.640625 L 27.839844 0.640625 L 27.839844 38.515625 L 0.238281 38.515625 Z M 0.238281 0.640625 "/></clipPath><clipPath id="4485467bde"><rect x="0" width="28" y="0" height="39"/></clipPath></defs><g id="e69d5608e8"><g clip-rule="nonzero" clip-path="url(#35191ecb09)"><g mask="url(#b8da9008b2)" transform="matrix(1,0,0,1,45,164)"><g clip-path="url(#c2fd896218)"><g clip-rule="nonzero" clip-path="url(#05986f0ca3)"><path style=" stroke:none;fill-rule:nonzero;fill:#00bf63;fill-opacity:1;" d="M 27.503906 35.46875 C 27.511719 37.125 26.171875 38.472656 24.519531 38.476562 C 24.503906 38.476562 24.484375 38.476562 24.46875 38.476562 C 20.851562 38.476562 17.453125 37.070312 14.890625 34.511719 L 4.375 23.996094 C -0.90625 18.710938 -0.90625 10.117188 4.375 4.835938 C 9.660156 -0.445312 18.253906 -0.445312 23.535156 4.835938 L 26.628906 7.929688 C 27.796875 9.097656 27.796875 10.996094 26.628906 12.167969 C 25.457031 13.339844 23.558594 13.339844 22.386719 12.167969 L 19.296875 9.074219 C 16.351562 6.128906 11.558594 6.128906 8.617188 9.074219 C 5.671875 12.019531 5.671875 16.8125 8.617188 19.753906 L 19.128906 30.269531 C 20.558594 31.699219 22.453125 32.484375 24.46875 32.484375 C 24.484375 32.484375 24.496094 32.480469 24.507812 32.480469 C 26.160156 32.484375 27.5 33.816406 27.503906 35.46875 Z M 16.003906 12.304688 C 14.828125 11.140625 12.929688 11.148438 11.765625 12.324219 C 10.601562 13.5 10.609375 15.398438 11.789062 16.5625 L 22.375 27.050781 C 22.960938 27.628906 23.722656 27.917969 24.484375 27.917969 C 25.257812 27.917969 26.027344 27.621094 26.617188 27.027344 C 27.78125 25.851562 27.769531 23.953125 26.59375 22.789062 Z M 16.003906 12.304688 "/></g></g><mask id="b8da9008b2"><g filter="url(#4ef04b2404)"><rect x="0" width="375" y="0" height="374.999991" style="fill:#000000;fill-opacity:0.7;stroke:none;"/></g></mask></g></g><g clip-rule="nonzero" clip-path="url(#448bbb8c59)"><g mask="url(#d051f19bb9)" transform="matrix(1,0,0,1,66,164)"><g clip-path="url(#4485467bde)"><g clip-rule="nonzero" clip-path="url(#a54b011d25)"><path style=" stroke:none;fill-rule:nonzero;fill:#00c6fe;fill-opacity:1;" d="M 23.640625 23.996094 L 13.125 34.511719 C 10.5625 37.070312 7.164062 38.476562 3.546875 38.476562 C 3.53125 38.476562 3.511719 38.476562 3.496094 38.476562 C 1.839844 38.472656 0.503906 37.125 0.511719 35.46875 C 0.515625 33.816406 1.855469 32.484375 3.507812 32.484375 C 3.519531 32.484375 3.53125 32.484375 3.546875 32.484375 C 5.5625 32.484375 7.457031 31.699219 8.882812 30.269531 L 19.398438 19.753906 C 22.34375 16.8125 22.34375 12.019531 19.398438 9.074219 C 16.457031 6.128906 11.664062 6.128906 8.71875 9.074219 L 5.628906 12.167969 C 4.457031 13.339844 2.558594 13.339844 1.386719 12.167969 C 0.21875 10.996094 0.21875 9.097656 1.386719 7.929688 L 4.480469 4.835938 C 9.761719 -0.445312 18.355469 -0.445312 23.640625 4.835938 C 28.921875 10.117188 28.921875 18.710938 23.640625 23.996094 Z M 3.5625 27.917969 C 4.324219 27.917969 5.085938 27.628906 5.671875 27.050781 L 16.261719 16.5625 C 17.4375 15.398438 17.445312 13.5 16.28125 12.324219 C 15.117188 11.148438 13.21875 11.140625 12.042969 12.304688 L 1.453125 22.789062 C 0.277344 23.953125 0.269531 25.851562 1.433594 27.027344 C 2.019531 27.621094 2.789062 27.917969 3.5625 27.917969 Z M 3.5625 27.917969 "/></g></g><mask id="d051f19bb9"><g filter="url(#4ef04b2404)"><rect x="0" width="375" y="0" height="374.999991" style="fill:#000000;fill-opacity:0.7;stroke:none;"/></g></mask></g></g><g style="fill:#ffffff;fill-opacity:1;"><g transform="translate(99.0099, 203.704249)"><path style="stroke:none" d="M 10.03125 0 L 3.21875 0 L 3.21875 -36.125 L 10.890625 -36.125 L 25.703125 -10.28125 L 25.703125 -36.125 L 32.53125 -36.125 L 32.53125 0 L 24.8125 0 L 10.03125 -25.890625 Z M 10.03125 0 "/></g></g><g style="fill:#ffffff;fill-opacity:1;"><g transform="translate(134.280875, 203.704249)"><path style="stroke:none" d="M 12.171875 0.515625 C 8.066406 0.515625 5.300781 -0.945312 3.875 -3.875 C 3.46875 -4.757812 3.175781 -5.726562 3 -6.78125 C 2.832031 -7.84375 2.75 -9.335938 2.75 -11.265625 L 2.75 -26.5625 L 9.140625 -26.5625 L 9.140625 -11.21875 C 9.140625 -9.863281 9.238281 -8.765625 9.4375 -7.921875 C 9.644531 -7.085938 9.972656 -6.421875 10.421875 -5.921875 C 11.171875 -5.128906 12.289062 -4.734375 13.78125 -4.734375 C 15.601562 -4.734375 16.957031 -5.269531 17.84375 -6.34375 C 18.382812 -6.976562 18.769531 -7.820312 19 -8.875 C 19.238281 -9.9375 19.359375 -11.332031 19.359375 -13.0625 L 19.359375 -26.5625 L 25.75 -26.5625 L 25.75 0 L 19.359375 0 L 19.359375 -3.359375 C 18.378906 -2.003906 17.328125 -1.019531 16.203125 -0.40625 C 15.085938 0.207031 13.742188 0.515625 12.171875 0.515625 Z M 12.171875 0.515625 "/></g></g><g style="fill:#ffffff;fill-opacity:1;"><g transform="translate(162.497643, 203.704249)"><path style="stroke:none" d="M 16.46875 0 L 11.21875 0 C 9.257812 0 7.734375 -0.457031 6.640625 -1.375 C 5.554688 -2.289062 5.015625 -3.773438 5.015625 -5.828125 L 5.015625 -21.453125 L 1.09375 -21.453125 L 1.09375 -26.5625 L 5.015625 -26.5625 L 5.015625 -36.125 L 11.40625 -36.125 L 11.40625 -26.5625 L 16.515625 -26.5625 L 16.515625 -21.453125 L 11.40625 -21.453125 L 11.40625 -7.765625 C 11.40625 -7.066406 11.523438 -6.476562 11.765625 -6 C 12.003906 -5.53125 12.613281 -5.296875 13.59375 -5.296875 L 16.46875 -5.296875 Z M 16.46875 0 "/></g></g><g style="fill:#ffffff;fill-opacity:1;"><g transform="translate(180.156768, 203.704249)"><path style="stroke:none" d="M 9.28125 0 L 2.890625 0 L 2.890625 -26.5625 L 9.28125 -26.5625 L 9.28125 -23.390625 C 10.289062 -24.773438 11.414062 -25.742188 12.65625 -26.296875 C 13.90625 -26.847656 15.304688 -27.125 16.859375 -27.125 L 17.609375 -27.125 L 17.609375 -20.96875 L 16.140625 -20.96875 C 15.066406 -20.96875 14.144531 -20.828125 13.375 -20.546875 C 12.601562 -20.265625 11.945312 -19.867188 11.40625 -19.359375 C 10.71875 -18.671875 10.191406 -17.765625 9.828125 -16.640625 C 9.460938 -15.515625 9.28125 -14.070312 9.28125 -12.3125 Z M 9.28125 0 "/></g></g><g style="fill:#ffffff;fill-opacity:1;"><g transform="translate(198.194647, 203.704249)"><path style="stroke:none" d="M 6.109375 -29.5 C 5.035156 -29.5 4.109375 -29.828125 3.328125 -30.484375 C 2.554688 -31.148438 2.171875 -32.035156 2.171875 -33.140625 C 2.171875 -34.210938 2.554688 -35.085938 3.328125 -35.765625 C 4.109375 -36.441406 5.035156 -36.78125 6.109375 -36.78125 C 7.179688 -36.78125 8.101562 -36.441406 8.875 -35.765625 C 9.644531 -35.085938 10.03125 -34.210938 10.03125 -33.140625 C 10.03125 -32.035156 9.644531 -31.148438 8.875 -30.484375 C 8.101562 -29.828125 7.179688 -29.5 6.109375 -29.5 Z M 9.28125 0 L 2.890625 0 L 2.890625 -26.5625 L 9.28125 -26.5625 Z M 9.28125 0 "/></g></g><g style="fill:#ffffff;fill-opacity:1;"><g transform="translate(209.935816, 203.704249)"><path style="stroke:none" d="M 14.859375 0 L 8.8125 0 L 0.703125 -26.5625 L 7.53125 -26.5625 L 12.078125 -9.328125 L 17.140625 -26.5625 L 22.671875 -26.5625 L 27.75 -9.421875 L 32.4375 -26.5625 L 39.203125 -26.5625 L 30.96875 0 L 24.953125 0 L 19.984375 -17.890625 Z M 14.859375 0 "/></g></g><g style="fill:#ffffff;fill-opacity:1;"><g transform="translate(249.420367, 203.704249)"><path style="stroke:none" d="M 15.34375 0.515625 C 12.625 0.515625 10.242188 -0.0703125 8.203125 -1.25 C 6.171875 -2.4375 4.59375 -4.054688 3.46875 -6.109375 C 2.351562 -8.160156 1.796875 -10.492188 1.796875 -13.109375 C 1.796875 -14.847656 2.0625 -16.550781 2.59375 -18.21875 C 3.132812 -19.894531 3.957031 -21.40625 5.0625 -22.75 C 6.164062 -24.09375 7.550781 -25.15625 9.21875 -25.9375 C 10.894531 -26.726562 12.875 -27.125 15.15625 -27.125 C 16.851562 -27.125 18.5 -26.851562 20.09375 -26.3125 C 21.6875 -25.78125 23.113281 -24.953125 24.375 -23.828125 C 25.644531 -22.710938 26.648438 -21.285156 27.390625 -19.546875 C 28.128906 -17.816406 28.5 -15.75 28.5 -13.34375 L 28.5 -11.984375 L 8.421875 -11.984375 C 8.484375 -11.410156 8.609375 -10.847656 8.796875 -10.296875 C 8.992188 -9.742188 9.203125 -9.265625 9.421875 -8.859375 C 10.054688 -7.617188 10.898438 -6.660156 11.953125 -5.984375 C 13.015625 -5.304688 14.222656 -4.96875 15.578125 -4.96875 C 17.085938 -4.96875 18.351562 -5.363281 19.375 -6.15625 C 20.40625 -6.945312 21.128906 -7.878906 21.546875 -8.953125 L 28.078125 -8.953125 C 27.566406 -7.242188 26.757812 -5.671875 25.65625 -4.234375 C 24.550781 -2.796875 23.144531 -1.644531 21.4375 -0.78125 C 19.738281 0.0820312 17.707031 0.515625 15.34375 0.515625 Z M 8.71875 -16.765625 L 21.96875 -16.765625 C 21.9375 -17.109375 21.847656 -17.5 21.703125 -17.9375 C 21.566406 -18.382812 21.320312 -18.8125 20.96875 -19.21875 C 20.375 -20.164062 19.578125 -20.875 18.578125 -21.34375 C 17.585938 -21.820312 16.507812 -22.0625 15.34375 -22.0625 C 14.175781 -22.0625 13.109375 -21.820312 12.140625 -21.34375 C 11.179688 -20.875 10.382812 -20.164062 9.75 -19.21875 C 9.40625 -18.8125 9.160156 -18.382812 9.015625 -17.9375 C 8.878906 -17.5 8.78125 -17.109375 8.71875 -16.765625 Z M 8.71875 -16.765625 "/></g></g><g style="fill:#ffffff;fill-opacity:1;"><g transform="translate(279.246815, 203.704249)"><path style="stroke:none" d="M 13.0625 0 L 8.953125 0 C 6.992188 0 5.476562 -0.457031 4.40625 -1.375 C 3.332031 -2.289062 2.796875 -3.773438 2.796875 -5.828125 L 2.796875 -36.125 L 9.1875 -36.125 L 9.1875 -7.71875 C 9.1875 -6.832031 9.347656 -6.207031 9.671875 -5.84375 C 10.003906 -5.476562 10.566406 -5.296875 11.359375 -5.296875 L 13.0625 -5.296875 Z M 13.0625 0 "/></g></g><g style="fill:#ffffff;fill-opacity:1;"><g transform="translate(293.071105, 203.704249)"><path style="stroke:none" d="M 13.0625 0 L 8.953125 0 C 6.992188 0 5.476562 -0.457031 4.40625 -1.375 C 3.332031 -2.289062 2.796875 -3.773438 2.796875 -5.828125 L 2.796875 -36.125 L 9.1875 -36.125 L 9.1875 -7.71875 C 9.1875 -6.832031 9.347656 -6.207031 9.671875 -5.84375 C 10.003906 -5.476562 10.566406 -5.296875 11.359375 -5.296875 L 13.0625 -5.296875 Z M 13.0625 0 "/></g></g><g style="fill:#ffffff;fill-opacity:1;"><g transform="translate(308.154155, 169.946632)"><path style="stroke:none" d="M 3.65625 -6.578125 L 2.421875 -6.578125 L 2.421875 -12.0625 L 0.390625 -12.0625 L 0.390625 -13.1875 L 5.671875 -13.1875 L 5.671875 -12.0625 L 3.65625 -12.0625 Z M 7.609375 -6.578125 L 6.359375 -6.578125 L 6.359375 -13.1875 L 8.421875 -13.1875 L 9.78125 -8.09375 L 11.125 -13.1875 L 13.203125 -13.1875 L 13.203125 -6.578125 L 11.953125 -6.578125 L 11.953125 -12.25 L 10.390625 -6.578125 L 9.171875 -6.578125 L 7.609375 -12.21875 Z M 7.609375 -6.578125 "/></g></g></g></svg>